Coordinates
version=1
nRows=14
nColumns=24
inDegrees=yes

Units are S.I. units (second, meters, Newtons, ...)
Angles are in degrees.

endheader
time	pelvis_tilt	pelvis_list	pelvis_rotation	pelvis_tx	pelvis_ty	pelvis_tz	hip_flexion_r	hip_adduction_r	hip_rotation_r	knee_angle_r	ankle_angle_r	subtalar_angle_r	mtp_angle_r	hip_flexion_l	hip_adduction_l	hip_rotation_l	knee_angle_l	ankle_angle_l	subtalar_angle_l	mtp_angle_l	lumbar_extension	lumbar_bending	lumbar_rotation
      5.27000000	      5.08581520	      0.71675553	      6.12884927	     -2.52291765	      0.92064020	      0.19479794	     13.34870652	      3.19655357	     -8.46655717	      2.33852720	      6.61427517	      0.37500628	      0.00000000	    -16.37956268	      4.81395403	      0.62447724	    -13.33696944	     16.67882127	      3.66594006	      0.00000000	    -21.85138101	      0.32722307	     -6.76112755
      5.28000000	      5.30737918	      0.54075641	      6.14663475	     -2.51160533	      0.92020821	      0.19511175	     13.18173985	      3.46762789	     -7.49526634	      1.09999527	      5.70014053	     -0.17743030	      0.00000000	    -16.89230870	      4.43977975	      0.35925258	    -14.16544305	     16.32706762	      4.15227705	      0.00000000	    -21.86104075	      0.55716469	     -6.70153147
      5.29000000	      5.49430608	      0.26332621	      6.15297968	     -2.50012339	      0.91997099	      0.19547465	     13.00359078	      3.86524823	     -6.22129231	     -0.07516465	      4.29455298	     -1.29961252	      0.00000000	    -17.25686331	      3.94896885	     -0.02496331	    -15.17617565	     15.90165830	      4.72513458	      0.00000000	    -21.78891921	      0.90112139	     -6.59225630
      5.30000000	      5.72369222	     -0.09509911	      6.13218594	     -2.48851143	      0.92009000	      0.19586884	     12.76564782	      4.37460481	     -4.91659824	     -1.22143854	      2.76436955	     -2.50495794	      0.00000000	    -17.56350500	      3.36470685	     -0.50310552	    -16.33919848	     15.23938659	      5.26209299	      0.00000000	    -21.74078159	      1.34942880	     -6.45670614
      5.31000000	      5.96490226	     -0.50168439	      6.08260781	     -2.47683661	      0.92053457	      0.19631811	     12.53734698	      4.95237056	     -3.73400737	     -2.40226183	      1.30551919	     -3.65043925	      0.00000000	    -17.74310694	      2.71459973	     -1.11690497	    -17.71433338	     14.33559818	      5.83325243	      0.00000000	    -21.69767047	      1.83403811	     -6.29148630
      5.32000000	      6.23028292	     -0.92639595	      5.98420123	     -2.46513225	      0.92129731	      0.19679383	     12.30803626	      5.55945801	     -2.73757751	     -3.64214140	      0.02895142	     -4.60296562	      0.00000000	    -17.80849479	      2.03654724	     -1.85218741	    -19.29590270	     13.13627030	      6.41730695	      0.00000000	    -21.68035810	      2.33780788	     -6.09411509
      5.33000000	      6.49523799	     -1.33772720	      5.83566021	     -2.45343889	      0.92228583	      0.19730111	     12.10708422	      6.15088110	     -1.99479513	     -4.96879674	     -0.88855554	     -5.22862053	      0.00000000	    -17.72173059	      1.35938822	     -2.69979253	    -21.09713890	     11.58893676	      6.95120316	      0.00000000	    -21.66359508	      2.81788397	     -5.88616440
      5.34000000	      6.74955663	     -1.68918545	      5.67451322	     -2.44183211	      0.92342126	      0.19782337	     11.92574289	      6.66468498	     -1.57112717	     -6.35216031	     -1.42399414	     -5.67083536	      0.00000000	    -17.45850223	      0.71520169	     -3.58252535	    -23.12269905	      9.62752664	      7.33786965	      0.00000000	    -21.65842248	      3.21305449	     -5.69932195
      5.35000000	      7.00791710	     -1.98141883	      5.52326789	     -2.43033480	      0.92466772	      0.19833948	     11.70084206	      7.09126730	     -1.48298638	     -7.69608740	     -1.60380617	     -5.81889707	      0.00000000	    -17.04962093	      0.10003466	     -4.39792656	    -25.32567341	      7.20818432	      7.51336325	      0.00000000	    -21.67838408	      3.53666762	     -5.57561523
      5.36000000	      7.23126954	     -2.22359907	      5.37012316	     -2.41898831	      0.92588365	      0.19893125	     11.43483900	      7.45554004	     -1.46955469	     -8.92315830	     -1.46325191	     -5.98383994	      0.00000000	    -16.43401806	     -0.51582329	     -5.22414946	    -27.73419608	      4.50093623	      7.63952261	      0.00000000	    -21.67741848	      3.77970633	     -5.46216742
      5.37000000	      7.35242604	     -2.40537607	      5.23863029	     -2.40786700	      0.92695535	      0.19951782	     11.21927154	      7.72500252	     -1.66745543	    -10.05199092	     -0.91710801	     -5.92786559	      0.00000000	    -15.55778055	     -1.07384415	     -5.83690990	    -30.28985346	      1.47916528	      7.33967219	      0.00000000	    -21.58575169	      3.93819312	     -5.36168649
      5.38000000	      7.48600092	     -2.57666754	      5.15794702	     -2.39697476	      0.92801951	      0.20009997	     10.88394258	      7.97246213	     -2.01349525	    -10.97131951	     -0.19924571	     -5.76797268	      0.00000000	    -14.55284145	     -1.65276731	     -6.26441476	    -32.96757980	     -1.65958690	      6.85004709	      0.00000000	    -21.55049057	      4.07067581	     -5.24769616
      5.39000000	      7.61830654	     -2.75621394	      5.19272736	     -2.38633861	      0.92906594	      0.20051855	     10.46014836	      8.19455564	     -2.63120533	    -11.70378254	      0.81328494	     -5.13998833	      0.00000000	    -13.39813207	     -2.25329619	     -6.37875761	    -35.76172196	     -4.66779179	      6.26675963	      0.00000000	    -21.54743992	      4.24891543	     -5.23214447
      5.40000000	      7.72313002	     -2.94357015	      5.26579249	     -2.37596136	      0.93001087	      0.20090207	      9.96703199	      8.44325549	     -3.08172835	    -12.23839598	      1.82118937	     -4.73720764	      0.00000000	    -12.08873969	     -2.84585472	     -6.29919303	    -38.64667920	     -7.27838536	      5.57053511	      0.00000000	    -21.55264985	      4.42337372	     -5.17077159
